<?xml version="1.0" encoding="UTF-8"?>
<svg id="Layer_1" data-name="Layer 1" xmlns="http://www.w3.org/2000/svg" viewBox="0 0 1920 1080" preserveAspectRatio="xMidYMid slice">
  <defs>
    <style>
      .cls-1 {
        fill: #00f500;
      }

      .cls-2 {
        stroke: #000;
        stroke-miterlimit: 10;
      }
    </style>
  </defs>
  <rect class="cls-1" width="1920" height="1080"/>
  <g>
    <g>
      <path class="cls-2" d="M502.2568,492.77v-72.416h11.9033v72.416h-11.9033ZM507.9844,464.6802v-11.4053h23.1592c2.8887,0,5.2207-.9873,6.998-2.9634,1.7754-1.9751,2.6641-4.5571,2.6641-7.7446,0-3.2871-.8799-5.9097-2.6396-7.8691-1.7598-1.9585-4.1006-2.9385-7.0225-2.9385h-23.1592v-11.4053h22.8105c4.4824,0,8.3838.9214,11.7041,2.7642s5.9102,4.4248,7.7695,7.7446c1.8594,3.3208,2.7891,7.2217,2.7891,11.7041,0,4.4497-.9297,8.3345-2.7891,11.6543-1.8594,3.3208-4.457,5.894-7.7939,7.7197-3.3369,1.8267-7.2305,2.7393-11.6797,2.7393h-22.8105Z"/>
      <path class="cls-2" d="M587.6318,493.5171c-6.9395,0-12.3105-1.9673-16.1113-5.9019-3.8027-3.9346-5.7031-9.4707-5.7031-16.6099v-8.417c0-7.0723,1.9004-12.5508,5.7031-16.4355,3.8008-3.8848,9.1719-5.8271,16.1113-5.8271s12.3096,1.9424,16.1123,5.8271c3.8008,3.8848,5.7021,9.3633,5.7021,16.4355v8.5664c0,7.106-1.9014,12.6094-5.7021,16.5103-3.8027,3.9019-9.1729,5.8521-16.1123,5.8521ZM587.6318,482.1118c3.1543,0,5.5947-.9624,7.3213-2.8887,1.7266-1.9253,2.5898-4.6147,2.5898-8.0684v-8.5664c0-3.4526-.8633-6.126-2.5898-8.0186s-4.167-2.8389-7.3213-2.8389c-3.1211,0-5.5527.9463-7.2959,2.8389s-2.6152,4.5659-2.6152,8.0186v8.5664c0,3.4536.8721,6.1431,2.6152,8.0684,1.7432,1.9263,4.1748,2.8887,7.2959,2.8887Z"/>
      <path class="cls-2" d="M625.4443,492.77v-51.6973h12.4014v51.6973h-12.4014ZM654.2314,454.3706c-.7646-.8628-1.7354-1.519-2.9141-1.9673s-2.5322-.6724-4.0586-.6724c-2.9883,0-5.3047.8887-6.9482,2.6646-1.6436,1.7769-2.4648,4.2422-2.4648,7.396l-1.0459-11.7041c1.4941-3.0542,3.4443-5.4448,5.8516-7.1719,2.4072-1.7261,5.0557-2.5898,7.9443-2.5898,2.2568,0,4.2988.3408,6.126,1.021,1.8252.6812,3.4189,1.6855,4.7812,3.0132l-7.2715,10.0107Z"/>
      <path class="cls-2" d="M667.5391,451.4819v-10.4092h24.3047v10.4092h-24.3047ZM685.4688,493.019c-4.417,0-7.6201-1.1777-9.6123-3.5361-1.9922-2.3569-2.9883-5.7437-2.9883-10.1602v-53.291h11.9033v51.6475c0,1.229.249,2.1914.7471,2.8887s1.2275,1.0459,2.1914,1.0459h4.1338v11.4053h-6.375Z"/>
      <path class="cls-2" d="M703.3584,451.2329v-10.1602h26.8447v10.1602h-26.8447ZM708.8369,492.77v-58.7197c0-4.5483,1.0459-7.9688,3.1377-10.2598s5.3457-3.4365,9.7617-3.4365h8.4668v10.9072h-6.5244c-1.0293,0-1.7764.3906-2.2412,1.1704-.4658.7808-.6973,1.7021-.6973,2.7642v57.5742h-11.9033Z"/>
      <path class="cls-2" d="M762.5361,493.5171c-6.9404,0-12.3105-1.9673-16.1113-5.9019-3.8027-3.9346-5.7031-9.4707-5.7031-16.6099v-8.417c0-7.0723,1.9004-12.5508,5.7031-16.4355,3.8008-3.8848,9.1709-5.8271,16.1113-5.8271s12.3096,1.9424,16.1113,5.8271,5.7031,9.3633,5.7031,16.4355v8.5664c0,7.106-1.9014,12.6094-5.7031,16.5103-3.8018,3.9019-9.1719,5.8521-16.1113,5.8521ZM762.5361,482.1118c3.1543,0,5.5947-.9624,7.3213-2.8887,1.7256-1.9253,2.5898-4.6147,2.5898-8.0684v-8.5664c0-3.4526-.8643-6.126-2.5898-8.0186-1.7266-1.8926-4.167-2.8389-7.3213-2.8389-3.1211,0-5.5527.9463-7.2969,2.8389-1.7422,1.8926-2.6143,4.5659-2.6143,8.0186v8.5664c0,3.4536.8721,6.1431,2.6143,8.0684,1.7441,1.9263,4.1758,2.8887,7.2969,2.8887Z"/>
      <path class="cls-2" d="M812.252,420.354v57.2256c0,1.229.3154,2.1914.9463,2.8887.6299.6973,1.5264,1.0459,2.6895,1.0459h3.5361v11.4053h-6.4746c-3.9844,0-7.0811-1.1953-9.2881-3.5859-2.209-2.3906-3.3125-5.7603-3.3125-10.1104v-58.8691h11.9033Z"/>
      <path class="cls-2" d="M832.084,432.2573v-11.9033h11.8535v11.9033h-11.8535ZM832.084,492.77v-51.6973h11.8535v51.6973h-11.8535Z"/>
      <path class="cls-2" d="M880.9023,493.5171c-6.9404,0-12.3105-1.9673-16.1113-5.9019-3.8027-3.9346-5.7031-9.4707-5.7031-16.6099v-8.417c0-7.0723,1.9004-12.5508,5.7031-16.4355,3.8008-3.8848,9.1709-5.8271,16.1113-5.8271s12.3096,1.9424,16.1113,5.8271,5.7031,9.3633,5.7031,16.4355v8.5664c0,7.106-1.9014,12.6094-5.7031,16.5103-3.8018,3.9019-9.1719,5.8521-16.1113,5.8521ZM880.9023,482.1118c3.1543,0,5.5947-.9624,7.3213-2.8887,1.7256-1.9253,2.5898-4.6147,2.5898-8.0684v-8.5664c0-3.4526-.8643-6.126-2.5898-8.0186-1.7266-1.8926-4.167-2.8389-7.3213-2.8389-3.1211,0-5.5527.9463-7.2969,2.8389-1.7422,1.8926-2.6143,4.5659-2.6143,8.0186v8.5664c0,3.4536.8721,6.1431,2.6143,8.0684,1.7441,1.9263,4.1758,2.8887,7.2969,2.8887Z"/>
    </g>
    <g>
      <path d="M619.3311,524.4497c3.75,0,7.2295.3271,10.4404.98,3.209.6538,5.9932,1.7334,8.3516,3.2383,2.3574,1.5059,4.1895,3.5088,5.4971,6.0083,1.3066,2.5005,1.96,5.6245,1.96,9.3745,0,3.6367-.668,6.7051-2.0029,9.2041-1.335,2.501-3.125,4.5312-5.3691,6.0928-2.2451,1.5645-4.8721,2.6855-7.8828,3.3672-3.0117.6816-6.1934,1.0225-9.5449,1.0225h-11.335v26.1631h-8.9482v-58.207c-.9668-.1133-1.8896-.2837-2.7695-.5112-.8818-.2266-1.6621-.4819-2.3438-.7671v-6.3916c.7949.1143,1.7471.2129,2.8555.2983,1.1074.085,2.1436.1279,3.1104.1279h17.9814ZM609.4453,556.4932h12.2725c4.6016,0,8.2373-.9502,10.9082-2.8545,2.6699-1.9033,4.0059-5.127,4.0059-9.6738,0-2.1582-.4131-4.0181-1.2363-5.5815-.8242-1.562-1.9746-2.8403-3.4512-3.835-1.4775-.9932-3.21-1.7178-5.1982-2.1733-1.9893-.4541-4.1201-.6816-6.3916-.6816h-10.9092v24.7998Z"/>
      <path d="M661.3467,570.7256c0,2.2725.3262,4.2051.9795,5.7949.6523,1.5908,1.5342,2.8975,2.6416,3.9209,1.1084,1.0215,2.415,1.7617,3.9209,2.2148,1.5049.4561,3.1387.6816,4.9004.6816,3.5791,0,6.5322-1.0078,8.8633-3.0254,2.3281-2.0156,3.4941-5.2109,3.4941-9.5869v-26.8447h8.8623v46.0195h-6.7324l-1.1074-4.6016c-1.5342,1.875-3.6221,3.2949-6.2637,4.2617-2.6426.9648-5.4121,1.4473-8.3096,1.4473-3.0117,0-5.7393-.4258-8.1816-1.2773-2.4434-.8535-4.5596-2.1309-6.3486-3.8359-1.79-1.7041-3.168-3.8203-4.1338-6.3486-.9668-2.5273-1.4482-5.4678-1.4482-8.8203v-26.8447h8.8633v26.8447Z"/>
      <path d="M706.6006,524.4497h8.8633v24.3735c1.5898-1.6475,3.6777-3.0674,6.2637-4.2607,2.584-1.1934,5.582-1.79,8.9912-1.79,3.749,0,7.0586.6113,9.9277,1.832,2.8682,1.2227,5.2842,2.9131,7.2441,5.0713,1.96,2.1602,3.4512,4.6875,4.4746,7.584,1.0225,2.8984,1.5332,6.0508,1.5332,9.4609,0,3.4082-.5107,6.5908-1.5332,9.5449-1.0234,2.9541-2.5146,5.5254-4.4746,7.7119-1.96,2.1885-4.376,3.9053-7.2441,5.1553-2.8691,1.25-6.1787,1.875-9.9277,1.875-3.4668,0-6.5195-.6523-9.1621-1.959-2.6416-1.3066-4.7021-2.9834-6.1787-5.0293l-1.875,5.8809h-6.9023v-65.4507ZM730.1221,550.0156c-1.9326,0-3.7646.3418-5.4971,1.0234-1.7334.6816-3.2529,1.6484-4.5596,2.8975-1.3076,1.251-2.373,2.7705-3.1963,4.5596-.8242,1.7891-1.293,3.793-1.4053,6.0078v4.5176c.1123,2.2148.5811,4.2188,1.4053,6.0078.8232,1.7891,1.8887,3.3379,3.1963,4.6445,1.3066,1.3076,2.8262,2.3164,4.5596,3.0254,1.7324.7109,3.5645,1.0654,5.4971,1.0654,2.1582,0,4.1465-.3975,5.9648-1.1934,1.8184-.7949,3.3799-1.9307,4.6875-3.4092,1.3066-1.4766,2.3145-3.2656,3.0254-5.3691.71-2.1006,1.0654-4.459,1.0654-7.0723,0-5.2266-1.3359-9.3184-4.0059-12.2734-2.6709-2.9531-6.25-4.4316-10.7373-4.4316Z"/>
      <path d="M762.8467,524.4497h8.9482v65.4507h-8.9482v-65.4507Z"/>
      <path d="M787.0488,589.9004v-38.6055h-.085c-1.1377,0-2.2881-.1133-3.4521-.3418-1.165-.2256-2.1729-.5391-3.0254-.9375v-6.5615c.7949.1143,1.7471.2129,2.8555.2979,1.1074.0859,2.1436.1289,3.1104.1289h7.7559c1.1357,0,1.7041.5684,1.7041,1.7041v44.3154h-8.8633ZM796.168,534.6763h-10.7383v-10.2266h10.7383v10.2266Z"/>
      <path d="M838.7773,552.4883c-1.25-.3975-2.5859-.7383-4.0049-1.0234-1.4209-.2832-2.8271-.5391-4.2188-.7666-1.3926-.2266-2.7275-.3975-4.0059-.5107s-2.4004-.1719-3.3662-.1719c-3.125,0-5.6816.4414-7.6699,1.3223-1.9893.8809-2.9824,2.3721-2.9824,4.4736,0,1.8193.9502,3.168,2.8545,4.0479,1.9033.8818,4.4746,1.7471,7.7129,2.5996,2.5.6816,4.8711,1.4355,7.1162,2.2578,2.2441.8242,4.2041,1.8477,5.8799,3.0684,1.6758,1.2227,2.9971,2.6562,3.9629,4.3037.9658,1.6494,1.4492,3.6084,1.4492,5.8799,0,2.3867-.5684,4.4043-1.7041,6.0508-1.1377,1.6494-2.6426,2.998-4.5176,4.0488-1.874,1.0508-4.0049,1.8027-6.3916,2.2578-2.3857.4551-4.8291.6816-7.3291.6816-2.8975,0-5.9092-.3262-9.0332-.9785-3.125-.6543-5.8809-1.4922-8.2666-2.5156v-7.584c2.8398,1.0225,5.8379,1.918,8.9912,2.6846s6.2344,1.1504,9.2461,1.1504c2.9541,0,5.3828-.4814,7.2871-1.4482,1.9023-.9658,2.8545-2.415,2.8545-4.3477,0-2.1582-1.0225-3.877-3.0684-5.1553-2.0449-1.2783-5.4258-2.457-10.1406-3.5361-1.9902-.4551-3.9355-1.0234-5.8379-1.7051-1.9043-.6816-3.6094-1.5625-5.1133-2.6426-1.5068-1.0781-2.7139-2.3564-3.6221-3.834-.9102-1.4766-1.3643-3.2383-1.3643-5.2842,0-4.0342,1.6758-7.2148,5.0283-9.5449,3.3516-2.3291,8.1523-3.4941,14.4033-3.4941,2.6699,0,5.3818.2422,8.1387.7236,2.7549.4844,5.3262,1.123,7.7119,1.918v7.0742Z"/>
      <path d="M882.0713,562.9707c0-4.6025-1.1367-7.8965-3.4092-9.8867-2.2725-1.9883-5.2832-2.9824-9.0332-2.9824-1.5918,0-3.125.2559-4.6025.7676-1.4775.5107-2.7988,1.2773-3.9619,2.3008-1.166,1.0225-2.1035,2.3301-2.8125,3.9199-.7109,1.5918-1.0654,3.4668-1.0654,5.625v27.1855h-8.8633v-65.4507h8.8633v23.436c1.0781-1.249,2.8398-2.4141,5.2832-3.4941,2.4424-1.0791,5.2266-1.6191,8.3525-1.6191,2.9531,0,5.667.4268,8.1387,1.2783s4.6016,2.1309,6.3916,3.835,3.166,3.835,4.1328,6.3916c.9658,2.5566,1.4492,5.5117,1.4492,8.8633v26.7598h-8.8633v-26.9297Z"/>
      <path d="M904.4854,589.9004v-38.6055h-.085c-1.1377,0-2.2881-.1133-3.4521-.3418-1.165-.2256-2.1729-.5391-3.0254-.9375v-6.5615c.7949.1143,1.7471.2129,2.8555.2979,1.1074.0859,2.1436.1289,3.1104.1289h7.7559c1.1357,0,1.7041.5684,1.7041,1.7041v44.3154h-8.8633ZM913.6045,534.6763h-10.7383v-10.2266h10.7383v10.2266Z"/>
      <path d="M958.4307,563.0547c0-4.6016-1.1367-7.9102-3.4092-9.9277-2.2725-2.0156-5.2832-3.0254-9.0332-3.0254-1.4785,0-2.9551.2275-4.4316.6816-1.4785.4551-2.8125,1.1934-4.0059,2.2158-1.1924,1.0225-2.1592,2.3438-2.8975,3.9629s-1.1074,3.5654-1.1074,5.8379v27.1006h-8.8633v-46.0195h6.9883l.8525,4.6865c1.3057-1.8174,3.2939-3.2383,5.9648-4.2607,2.6699-1.0234,5.5674-1.5342,8.6934-1.5342,2.9531,0,5.667.4404,8.1387,1.3213s4.6016,2.1729,6.3916,3.877c1.79,1.7051,3.166,3.8359,4.1328,6.3926.9658,2.5566,1.4492,5.5107,1.4492,8.8633v26.6738h-8.8633v-26.8457Z"/>
      <path d="M1020.9834,589.9863c0,3.123-.583,5.8496-1.7471,8.1816-1.165,2.3281-2.7695,4.2734-4.8154,5.8379-2.0449,1.5605-4.4609,2.7266-7.2432,3.4941-2.7852.7656-5.7959,1.1504-9.0342,1.1504s-6.25-.3711-9.0332-1.1094c-2.7842-.7383-5.1709-1.8027-7.1592-3.1953-1.9893-1.3926-3.5508-3.0977-4.6865-5.1133-1.1377-2.0176-1.7051-4.3027-1.7051-6.8613h8.9482c0,1.4199.3545,2.6992,1.0654,3.8359.71,1.1367,1.6758,2.0879,2.8975,2.8555,1.2217.7656,2.6553,1.3477,4.3037,1.7461,1.6475.3965,3.4375.5977,5.3691.5977,1.9307,0,3.7354-.2129,5.4121-.6406,1.6748-.4258,3.1533-1.1074,4.4316-2.0449s2.2861-2.1309,3.0254-3.5781c.7373-1.4492,1.1074-3.168,1.1074-5.1562v-6.3926c-.6816,1.0234-1.5762,1.9473-2.6846,2.7695-1.1074.8242-2.3584,1.5195-3.75,2.0879-1.3926.5684-2.8545.9941-4.3887,1.2793-1.5342.2832-3.0117.4258-4.4316.4258-3.5234,0-6.7041-.5957-9.5449-1.7891-2.8418-1.1934-5.2705-2.8408-7.2861-4.9434-2.0176-2.1016-3.5801-4.6016-4.6875-7.5-1.1084-2.8975-1.6621-6.0508-1.6621-9.459,0-3.4102.5537-6.5479,1.6621-9.418,1.1074-2.8682,2.6699-5.3691,4.6875-7.5,2.0156-2.1299,4.4443-3.791,7.2861-4.9844,2.8408-1.1934,6.0215-1.79,9.5449-1.79,3.3516,0,6.377.6396,9.0762,1.917,2.6982,1.2793,4.9561,2.9404,6.7754,4.9863l1.0225-5.7949h7.2441v46.1055ZM997.4619,582.9121c1.9883,0,3.8633-.3691,5.625-1.1074,1.7598-.7383,3.2939-1.7607,4.6016-3.0684,1.3066-1.3066,2.3438-2.8398,3.1113-4.6016.7666-1.7607,1.1504-3.6357,1.1504-5.625v-4.0059c0-1.9883-.3838-3.8633-1.1504-5.625-.7676-1.7598-1.8047-3.2939-3.1113-4.6016-1.3076-1.3066-2.8418-2.3438-4.6016-3.1104-1.7617-.7666-3.6367-1.1514-5.625-1.1514s-3.8643.3418-5.625,1.0234c-1.7617.6816-3.3232,1.7051-4.6865,3.0684-1.3643,1.3633-2.4443,3.0674-3.2393,5.1133-.7959,2.0449-1.1924,4.4609-1.1924,7.2441,0,2.7266.4111,5.1133,1.2354,7.1582.8232,2.0449,1.9307,3.7646,3.3242,5.1562,1.3906,1.3926,2.9678,2.4287,4.7295,3.1104,1.7607.6816,3.5791,1.0225,5.4541,1.0225Z"/>
      <path d="M1048.5088,572.2598c0-2.0449.2686-3.9062.8096-5.582.5391-1.6758,1.3633-3.2812,2.4717-4.8154,1.1074-1.5342,2.542-3.0381,4.3037-4.5166,1.7598-1.4766,3.835-2.9824,6.2207-4.5176-1.1367-1.3633-2.2305-2.6836-3.2812-3.9629-1.0518-1.2773-1.96-2.5566-2.7266-3.834-.7676-1.2793-1.3789-2.5996-1.833-3.9629-.4551-1.3638-.6816-2.7837-.6816-4.2617,0-2.2158.3838-4.1611,1.1504-5.8374.7676-1.6753,1.8457-3.0815,3.2393-4.2188,1.3916-1.1357,3.0381-1.9883,4.9424-2.5566,1.9033-.5674,3.9629-.8521,6.1787-.8521,2.1582,0,4.2041.2979,6.1357.8945s3.6357,1.4634,5.1143,2.5996c1.4766,1.1372,2.6543,2.5566,3.5361,4.2607.8799,1.7046,1.3213,3.6938,1.3213,5.9658,0,1.3633-.3135,2.7563-.9375,4.1758-.626,1.4209-1.4912,2.8418-2.5996,4.2617-1.1074,1.4199-2.4004,2.8418-3.8779,4.2607-1.4775,1.4209-3.0674,2.8418-4.7725,4.2607l12.7842,16.5332c.4541-1.1357.7949-2.541,1.0225-4.2188.2266-1.6748.3965-3.1953.5117-4.5586h8.4365c-.2275,3.0117-.6387,5.8242-1.2354,8.4375s-1.4922,5-2.6846,7.1582l9.2891,12.5273h-9.8857l-4.5166-5.9648c-1.0234,1.0215-2.2451,1.959-3.665,2.8125-1.4209.8516-2.9121,1.6035-4.4736,2.2578-1.5635.6523-3.1963,1.1504-4.9004,1.4922-1.7051.3398-3.3535.5098-4.9434.5098-3.6367,0-6.7471-.5391-9.332-1.6191-2.5859-1.0801-4.7021-2.498-6.3486-4.2607-1.6484-1.7607-2.8555-3.7627-3.6221-6.0078-.7676-2.2441-1.1504-4.5303-1.1504-6.8604ZM1068.877,583.8496c1.0781,0,2.2158-.1406,3.4092-.4258,1.1924-.2832,2.3711-.6953,3.5361-1.2363,1.1641-.5391,2.2861-1.1934,3.3662-1.959,1.0791-.7676,2.0166-1.6621,2.8125-2.6855l-14.9141-19.0039c-1.9316,1.3066-3.5234,2.5-4.7725,3.5791-1.25,1.0791-2.2578,2.1455-3.0254,3.1963-.7666,1.0508-1.3076,2.1299-1.6191,3.2383-.3125,1.1074-.4688,2.3154-.4688,3.6211,0,1.4219.2412,2.8281.7246,4.2188.4814,1.3926,1.2207,2.6426,2.2158,3.75.9932,1.1074,2.2158,2.0029,3.6641,2.6846,1.4492.6816,3.1387,1.0225,5.0713,1.0225ZM1062.4854,536.9771c-.1152,1.8193.3965,3.6646,1.5342,5.5396,1.1357,1.875,2.584,3.835,4.3457,5.8799,2.7832-1.9873,4.8857-3.9756,6.3066-5.9648,1.4199-1.9883,2.1309-3.7778,2.1309-5.3691,0-2.0454-.6396-3.6777-1.918-4.9004-1.2783-1.2212-3.0547-1.832-5.3262-1.832-2.1602,0-3.8496.5684-5.0713,1.7041-1.2217,1.1372-1.8887,2.7847-2.002,4.9429Z"/>
      <path d="M1127.168,531.6934c-.9668-.1133-1.8896-.2837-2.7695-.5112-.8818-.2266-1.6621-.4819-2.3438-.7671v-6.3916c.7949.1143,1.7471.2129,2.8545.2983,1.1084.085,2.1445.1279,3.1113.1279h17.6406c5.7949,0,10.752.7959,14.8711,2.3862,4.1191,1.5908,7.5137,3.792,10.1846,6.6045,2.6699,2.8125,4.6299,6.1362,5.8799,9.9717,1.249,3.834,1.875,7.9971,1.875,12.4844,0,4.6602-.5537,9.0488-1.6611,13.167-1.1084,4.1201-2.9404,7.7275-5.4971,10.8232-2.5566,3.0977-5.9375,5.5391-10.1416,7.3301-4.2051,1.7891-9.4043,2.6836-15.5957,2.6836h-16.7041c-1.1367-.1699-1.7041-.7383-1.7041-1.7051v-56.502ZM1136.1162,582.6562h10.4824c4.2041,0,7.7256-.7793,10.5674-2.3438,2.8408-1.5615,5.1133-3.6211,6.8184-6.1777,1.7041-2.5566,2.9258-5.4258,3.6641-8.6074s1.1084-6.3926,1.1084-9.6309-.3838-6.3203-1.1504-9.2461c-.7676-2.9258-2.0322-5.4971-3.793-7.7129-1.7617-2.2158-4.0342-3.9761-6.8174-5.2842-2.7842-1.3062-6.2217-1.96-10.3125-1.96h-10.5674v50.9629Z"/>
      <path d="M1228.3281,586.918c-3.4092,1.6465-6.7051,2.7402-9.8867,3.2812-3.1816.5391-6.6191.8086-10.3115.8086-3.6367,0-6.918-.5684-9.8428-1.7031-2.9277-1.1387-5.4121-2.7705-7.457-4.9004-2.0459-2.1309-3.6221-4.6875-4.7305-7.6699-1.1074-2.9834-1.6621-6.3496-1.6621-10.0996,0-3.5801.54-6.8311,1.6201-9.7578,1.0781-2.9258,2.6123-5.4395,4.6016-7.543,1.9883-2.1006,4.3887-3.7197,7.2012-4.8574,2.8125-1.1357,5.9512-1.7041,9.417-1.7041,3.5225,0,6.6475.583,9.375,1.7471,2.7266,1.165,5.0137,2.7695,6.8604,4.8145,1.8457,2.0459,3.252,4.4609,4.2188,7.2441.9648,2.7852,1.4482,5.7949,1.4482,9.0342,0,.626-.0146,1.3779-.042,2.2588-.0293.8809-.1006,1.6611-.2139,2.3438h-35.3672c.0557,2.3857.5537,4.4307,1.4912,6.1348.9375,1.7051,2.1162,3.0977,3.5371,4.1758,1.4199,1.0801,2.9824,1.8623,4.6875,2.3438,1.7041.4844,3.3516.7246,4.9424.7246,1.7051,0,3.3096-.043,4.8154-.127,1.5049-.0859,3.0537-.2559,4.6445-.5117,1.5898-.2559,3.252-.625,4.9854-1.1074,1.7324-.4824,3.6221-1.1221,5.668-1.918v6.9883ZM1207.2773,550.0156c-3.9775,0-7.1455,1.209-9.502,3.623-2.3584,2.415-3.6797,5.582-3.9629,9.502h26.249c0-3.9199-1.1377-7.0869-3.4092-9.502-2.2734-2.4141-5.3984-3.623-9.375-3.623Z"/>
      <path d="M1269.8301,552.4883c-1.25-.3975-2.5859-.7383-4.0049-1.0234-1.4209-.2832-2.8271-.5391-4.2188-.7666-1.3926-.2266-2.7275-.3975-4.0059-.5107s-2.4004-.1719-3.3662-.1719c-3.125,0-5.6816.4414-7.6699,1.3223-1.9893.8809-2.9824,2.3721-2.9824,4.4736,0,1.8193.9502,3.168,2.8545,4.0479,1.9033.8818,4.4746,1.7471,7.7129,2.5996,2.5.6816,4.8711,1.4355,7.1162,2.2578,2.2441.8242,4.2041,1.8477,5.8799,3.0684,1.6758,1.2227,2.9971,2.6562,3.9629,4.3037.9658,1.6494,1.4492,3.6084,1.4492,5.8799,0,2.3867-.5684,4.4043-1.7041,6.0508-1.1377,1.6494-2.6426,2.998-4.5176,4.0488-1.874,1.0508-4.0049,1.8027-6.3916,2.2578-2.3857.4551-4.8291.6816-7.3291.6816-2.8975,0-5.9092-.3262-9.0332-.9785-3.125-.6543-5.8809-1.4922-8.2666-2.5156v-7.584c2.8398,1.0225,5.8379,1.918,8.9912,2.6846s6.2344,1.1504,9.2461,1.1504c2.9541,0,5.3828-.4814,7.2871-1.4482,1.9023-.9658,2.8545-2.415,2.8545-4.3477,0-2.1582-1.0225-3.877-3.0684-5.1553-2.0449-1.2783-5.4258-2.457-10.1406-3.5361-1.9902-.4551-3.9355-1.0234-5.8379-1.7051-1.9043-.6816-3.6094-1.5625-5.1133-2.6426-1.5068-1.0781-2.7139-2.3564-3.6221-3.834-.9102-1.4766-1.3643-3.2383-1.3643-5.2842,0-4.0342,1.6758-7.2148,5.0283-9.5449,3.3516-2.3291,8.1523-3.4941,14.4033-3.4941,2.6699,0,5.3818.2422,8.1387.7236,2.7549.4844,5.3262,1.123,7.7119,1.918v7.0742Z"/>
      <path d="M1283.0391,589.9004v-38.6055h-.085c-1.1377,0-2.2881-.1133-3.4521-.3418-1.165-.2256-2.1729-.5391-3.0254-.9375v-6.5615c.7949.1143,1.7471.2129,2.8555.2979,1.1074.0859,2.1436.1289,3.1104.1289h7.7559c1.1357,0,1.7041.5684,1.7041,1.7041v44.3154h-8.8633ZM1292.1582,534.6763h-10.7383v-10.2266h10.7383v10.2266Z"/>
      <path d="M1347.04,589.9863c0,3.123-.583,5.8496-1.7471,8.1816-1.165,2.3281-2.7695,4.2734-4.8154,5.8379-2.0449,1.5605-4.4609,2.7266-7.2432,3.4941-2.7852.7656-5.7959,1.1504-9.0342,1.1504s-6.25-.3711-9.0332-1.1094c-2.7842-.7383-5.1709-1.8027-7.1592-3.1953-1.9893-1.3926-3.5508-3.0977-4.6865-5.1133-1.1377-2.0176-1.7051-4.3027-1.7051-6.8613h8.9482c0,1.4199.3545,2.6992,1.0654,3.8359.71,1.1367,1.6758,2.0879,2.8975,2.8555,1.2217.7656,2.6553,1.3477,4.3037,1.7461,1.6475.3965,3.4375.5977,5.3691.5977,1.9307,0,3.7354-.2129,5.4121-.6406,1.6748-.4258,3.1533-1.1074,4.4316-2.0449s2.2861-2.1309,3.0254-3.5781c.7373-1.4492,1.1074-3.168,1.1074-5.1562v-6.3926c-.6816,1.0234-1.5762,1.9473-2.6846,2.7695-1.1074.8242-2.3584,1.5195-3.75,2.0879-1.3926.5684-2.8545.9941-4.3887,1.2793-1.5342.2832-3.0117.4258-4.4316.4258-3.5234,0-6.7041-.5957-9.5449-1.7891-2.8418-1.1934-5.2705-2.8408-7.2861-4.9434-2.0176-2.1016-3.5801-4.6016-4.6875-7.5-1.1084-2.8975-1.6621-6.0508-1.6621-9.459,0-3.4102.5537-6.5479,1.6621-9.418,1.1074-2.8682,2.6699-5.3691,4.6875-7.5,2.0156-2.1299,4.4443-3.791,7.2861-4.9844,2.8408-1.1934,6.0215-1.79,9.5449-1.79,3.3516,0,6.377.6396,9.0762,1.917,2.6982,1.2793,4.9561,2.9404,6.7754,4.9863l1.0225-5.7949h7.2441v46.1055ZM1323.5186,582.9121c1.9883,0,3.8633-.3691,5.625-1.1074,1.7598-.7383,3.2939-1.7607,4.6016-3.0684,1.3066-1.3066,2.3438-2.8398,3.1113-4.6016.7666-1.7607,1.1504-3.6357,1.1504-5.625v-4.0059c0-1.9883-.3838-3.8633-1.1504-5.625-.7676-1.7598-1.8047-3.2939-3.1113-4.6016-1.3076-1.3066-2.8418-2.3438-4.6016-3.1104-1.7617-.7666-3.6367-1.1514-5.625-1.1514s-3.8643.3418-5.625,1.0234c-1.7617.6816-3.3232,1.7051-4.6865,3.0684-1.3643,1.3633-2.4443,3.0674-3.2393,5.1133-.7959,2.0449-1.1924,4.4609-1.1924,7.2441,0,2.7266.4111,5.1133,1.2354,7.1582.8232,2.0449,1.9307,3.7646,3.3242,5.1562,1.3906,1.3926,2.9678,2.4287,4.7295,3.1104,1.7607.6816,3.5791,1.0225,5.4541,1.0225Z"/>
      <path d="M1391.5254,563.0547c0-4.6016-1.1367-7.9102-3.4092-9.9277-2.2725-2.0156-5.2832-3.0254-9.0332-3.0254-1.4785,0-2.9551.2275-4.4316.6816-1.4785.4551-2.8125,1.1934-4.0059,2.2158-1.1924,1.0225-2.1592,2.3438-2.8975,3.9629s-1.1074,3.5654-1.1074,5.8379v27.1006h-8.8633v-46.0195h6.9883l.8525,4.6865c1.3057-1.8174,3.2939-3.2383,5.9648-4.2607,2.6699-1.0234,5.5674-1.5342,8.6934-1.5342,2.9531,0,5.667.4404,8.1387,1.3213s4.6016,2.1729,6.3916,3.877c1.79,1.7051,3.166,3.8359,4.1328,6.3926.9658,2.5566,1.4492,5.5107,1.4492,8.8633v26.6738h-8.8633v-26.8457Z"/>
    </g>
  </g>
</svg>